PathFileType	4	(X/Y/Z)	/Users/niels/Desktop/University/Third Semester/Perception and Action/Exam/Gymnastics Motion Tracking/Code for Gym Tracking/Analyzed Data/Webcam_Backflip/id6_4_pure_Sports2D/id6_4_pure_Sports2D_px_person00.trc
DataRate	CameraRate	NumFrames	NumMarkers	Units	OrigDataRate	OrigDataStartFrame	OrigNumFrames
29.8125	29.8125	10	22	m	29.8125	40	160
Frame#	Time	Hip			RHip			RKnee			RAnkle			RBigToe			RSmallToe			RHeel			LHip			LKnee			LAnkle			LBigToe			LSmallToe			LHeel			Neck			Head			Nose			RShoulder			RElbow			RWrist			LShoulder			LElbow			LWrist		
		X1	Y1	Z1	X2	Y2	Z2	X3	Y3	Z3	X4	Y4	Z4	X5	Y5	Z5	X6	Y6	Z6	X7	Y7	Z7	X8	Y8	Z8	X9	Y9	Z9	X10	Y10	Z10	X11	Y11	Z11	X12	Y12	Z12	X13	Y13	Z13	X14	Y14	Z14	X15	Y15	Z15	X16	Y16	Z16	X17	Y17	Z17	X18	Y18	Z18	X19	Y19	Z19	X20	Y20	Z20	X21	Y21	Z21	X22	Y22	Z22
40	1.341719077568134	0.8437968102507262	-0.5804848128429071	0.0	0.8445697292178105	-0.5804841256686909	0.0	0.8491466977212068	-0.6816681208903871	0.0	0.824307415240183	-0.7763504755627987	0.0	0.8401692216509397	-0.8005092607914586	0.0	0.8351640433102105	-0.8013676292600211	0.0	0.8145102219264065	-0.7895966965425079	0.0	0.846810886527599	-0.5796939287529256	0.0	0.8487618239790954	-0.6803412164490178	0.0	0.8257134409817259	-0.774590348930858	0.0	0.8477755518082101	-0.7970762920100832	0.0	0.8422205646882338	-0.7941891102285501	0.0	0.8140842579698434	-0.7855209448640509	0.0	0.9390676820897973	-0.4763989445580804	0.0	0.986671665527592	-0.4475518485046242	0.0	0.9730614907486511	-0.47097830548435654	0.0	0.9301137532054499	-0.48477760629239897	0.0	0.9919077123781618	-0.4902529185359408	0.0	1.0509978512684006	-0.47386172371506424	0.0	0.929737924901877	-0.4786594975899664	0.0	0.9722993893013987	-0.4733076256232575	0.0	0.9916307731746172	-0.4571786084683673	0.0
41	1.3752620545073373	0.843971209249228	-0.6159970972742846	0.0	0.8452571238030435	-0.6160853390633936	0.0	0.8536183828794106	-0.7150301225772154	0.0	0.8277430329006524	-0.8053426425747511	0.0	0.8406098541371437	-0.826175338426607	0.0	0.8368216524228431	-0.8277906893895028	0.0	0.8173086299118073	-0.8171399581279518	0.0	0.8466599886741556	-0.6153988182886091	0.0	0.8527678593233208	-0.7136963453797379	0.0	0.8289403445855408	-0.8037451309082769	0.0	0.8496773434890914	-0.8230430518875171	0.0	0.8442114809867618	-0.8212796912966674	0.0	0.8164317030610683	-0.8138945863347393	0.0	0.9258329198283763	-0.496536828084211	0.0	0.9677299644029743	-0.4619416886096236	0.0	0.957639727226218	-0.4872733118693802	0.0	0.9171474152323182	-0.5056661206374498	0.0	0.9812675418156491	-0.49384359554302515	0.0	1.0353015332759674	-0.4633985616709507	0.0	0.915545643257411	-0.4999047499934071	0.0	0.95625988193838	-0.47759751782703036	0.0	0.9659283585377547	-0.4493288532372014	0.0
42	1.4088050314465406	0.8441422665393691	-0.6430875468831243	0.0	0.8454903875217678	-0.6433332604397762	0.0	0.8588763072049771	-0.7399778972853241	0.0	0.8289932997475146	-0.8248440089031279	0.0	0.8396384624639339	-0.8437720304515701	0.0	0.836504419913321	-0.8458353264214283	0.0	0.8172783222676804	-0.8345082093702396	0.0	0.8467526477930996	-0.64272708109087	0.0	0.8575545704621431	-0.738604685539108	0.0	0.8300335228651743	-0.8234070947673204	0.0	0.8492742345739986	-0.8405960948793048	0.0	0.8442519021299616	-0.8396148183726626	0.0	0.8162140343615594	-0.8320744063936841	0.0	0.9139079104670398	-0.5141208794633417	0.0	0.950783141822019	-0.47460529142379015	0.0	0.9440024196235324	-0.501887299888537	0.0	0.9057501156736321	-0.5236701373342197	0.0	0.9690952078307091	-0.4975616969713477	0.0	1.0166681429466509	-0.4565077908641925	0.0	0.9032288177058007	-0.5182113046231064	0.0	0.9416346338495991	-0.48400748604566746	0.0	0.9470417815405189	-0.44756792328620687	0.0
43	1.442348008385744	0.8438355160169126	-0.6593940252562264	0.0	0.84483393673453	-0.6597962088541758	0.0	0.8649979310394775	-0.7539536459073785	0.0	0.8292850531508897	-0.8333967588333608	0.0	0.8386181880444901	-0.851713220304583	0.0	0.8355172781087211	-0.8537902046452431	0.0	0.8160644148095053	-0.8408879084161444	0.0	0.8466513202114435	-0.6592893327136095	0.0	0.8633759515287198	-0.752541493935787	0.0	0.830149079026939	-0.8322244045646335	0.0	0.8478124695325205	-0.8486978760757657	0.0	0.8433900558094588	-0.8480714768352822	0.0	0.8149437258739691	-0.8391533173303859	0.0	0.9039984034607902	-0.5259892369542531	0.0	0.9367533397876492	-0.48266074681191345	0.0	0.9330598494267434	-0.5114631238926889	0.0	0.8963480673507982	-0.5357056637196466	0.0	0.9576223922260773	-0.49948813560214506	0.0	0.9993140789534563	-0.45169225327084395	0.0	0.8935711226154934	-0.5306086118797461	0.0	0.931804871340188	-0.4899804395491834	0.0	0.93947672672295	-0.4485562614911286	0.0
44	1.4758909853249473	0.8430401297342223	-0.6641152086468023	0.0	0.8434234853331679	-0.6646255236689201	0.0	0.8720239054672212	-0.755877253600566	0.0	0.8296006872030608	-0.8304538291587487	0.0	0.8382442416305913	-0.8493349620519905	0.0	0.8347157023585866	-0.8510004068789379	0.0	0.814973878235936	-0.8361624626072117	0.0	0.846306980404657	-0.6642924498683029	0.0	0.8703709778055697	-0.754447241554417	0.0	0.8302573736251947	-0.8297354349052574	0.0	0.8461937509261409	-0.8470908785958768	0.0	0.8424367513403054	-0.8464387699781512	0.0	0.8138086437445784	-0.835059300670057	0.0	0.8964708967753935	-0.5298171354165783	0.0	0.9260205769414078	-0.48383725979463016	0.0	0.925179721131838	-0.5134958415406682	0.0	0.8890109925935511	-0.5395854613909005	0.0	0.9483674112297694	-0.4975188796567563	0.0	0.9861287649169829	-0.4466664122035709	0.0	0.8868987327208312	-0.5349659024881512	0.0	0.9275949567065025	-0.49235023084716034	0.0	0.9423726721254508	-0.44827106377309345	0.0
45	1.5094339622641506	0.8420573966614447	-0.6581259123264823	0.0	0.8417162708155269	-0.6586475602818884	0.0	0.8798189858430379	-0.7465588913283566	0.0	0.8305180180543716	-0.8170697866486367	0.0	0.8391153499583455	-0.8376838948113894	0.0	0.8348650773367261	-0.8386804915070476	0.0	0.8146940326879241	-0.8216206382325179	0.0	0.8459488922219709	-0.6585520163542317	0.0	0.878350042468567	-0.7451536231358954	0.0	0.830964254883234	-0.8169234305820795	0.0	0.8453399008211654	-0.8367260897886295	0.0	0.8423065366114799	-0.8357648416063082	0.0	0.8134764855810664	-0.8211508600984145	0.0	0.8912290816924999	-0.5248952415141229	0.0	0.9187665294601092	-0.47723745715335936	0.0	0.92017601324108	-0.5071084992382313	0.0	0.8835594726687676	-0.5346779951307156	0.0	0.9418768971024643	-0.4902475530898292	0.0	0.9781448592837686	-0.43922690912451967	0.0	0.8830398990021359	-0.5305678096085118	0.0	0.9274706603436828	-0.4885666949693996	0.0	0.9512252121193585	-0.4435701961273108	0.0
46	1.542976939203354	0.8413113377095763	-0.6436340221148111	0.0	0.8402666144109889	-0.6440874859920243	0.0	0.887888775503554	-0.7285633714677208	0.0	0.8322724550847859	-0.7961719609475585	0.0	0.8419595282821892	-0.8196107822000963	0.0	0.8367686723455261	-0.8198760420851917	0.0	0.8154722739410858	-0.8002666800655542	0.0	0.8459075736212573	-0.6442047628779171	0.0	0.8866864983476545	-0.7272526462664236	0.0	0.8325598036597143	-0.7965314946630637	0.0	0.8462764897480758	-0.8199545210139934	0.0	0.8439945333480784	-0.8184450911032684	0.0	0.8142692282559691	-0.8004330627010081	0.0	0.8878301900652152	-0.5122614351493705	0.0	0.9147392133246511	-0.46362761203271413	0.0	0.9174529204182581	-0.4932022979862067	0.0	0.8797678731091318	-0.5219921286169135	0.0	0.937866261363273	-0.4774853866105749	0.0	0.9747077177557331	-0.4279464828012761	0.0	0.8814012216166035	-0.5182785941204012	0.0	0.9292353908594412	-0.47780275466879707	0.0	0.9612805984863607	-0.4331293465127312	0.0
47	1.5765199161425574	0.8412079511014486	-0.6235960767718912	0.0	0.8396384568663615	-0.6239882727081264	0.0	0.8954036046132187	-0.7055516653562669	0.0	0.8349548620762833	-0.7719896502816417	0.0	0.847261837946713	-0.7989400914790326	0.0	0.8409986426727973	-0.7985634991775703	0.0	0.8174768281396354	-0.7762737734381365	0.0	0.8464614232569936	-0.624215323079031	0.0	0.8944555639561318	-0.7044273300245549	0.0	0.8352028549511942	-0.7726672242934604	0.0	0.8497741953411722	-0.8001529446483294	0.0	0.8481744483295701	-0.7979063787472321	0.0	0.8164006185972735	-0.7769862727869206	0.0	0.8857452610087896	-0.4941618391392696	0.0	0.9128574983607426	-0.4449654794348404	0.0	0.9161994643154325	-0.47390327158794465	0.0	0.8774553081457338	-0.5036979007101847	0.0	0.9355996523980584	-0.46018319248254375	0.0	0.9741693977573257	-0.41256601479157257	0.0	0.8812034129630033	-0.5002054614318145	0.0	0.9312770207345049	-0.46119633110318986	0.0	0.9695726526337658	-0.41753476532988865	0.0
48	1.6100628930817606	0.8420148620770288	-0.6010928811268152	0.0	0.8402716078036523	-0.6015245829311064	0.0	0.9015058162731927	-0.6813385484097931	0.0	0.8387269391674388	-0.748795306401958	0.0	0.8549425987928065	-0.7791982110179837	0.0	0.847666457857953	-0.7783694979267763	0.0	0.8210277682762914	-0.7538109557981871	0.0	0.84775287923538	-0.6017488651412355	0.0	0.9007620428336978	-0.6804874218255713	0.0	0.839064808236684	-0.7496264894145596	0.0	0.8560227640223284	-0.7807178939789933	0.0	0.8548792312907787	-0.7776815417117939	0.0	0.820107936601092	-0.7548195678002956	0.0	0.8845368715140052	-0.47326397045925483	0.0	0.9115203474914914	-0.42359483151507105	0.0	0.9156264203978195	-0.45173714078548893	0.0	0.8763942831956636	-0.4824138265281356	0.0	0.9342576596103407	-0.44002296088257303	0.0	0.9747240943255511	-0.39401303498937074	0.0	0.881768637787705	-0.47903018572428824	0.0	0.932715473376834	-0.4411105860634974	0.0	0.9748797837884989	-0.39867473080065435	0.0
49	1.6436058700209641	0.8437854505788537	-0.578790307637188	0.0	0.8422958388679345	-0.5794070742131817	0.0	0.9056475797747184	-0.6589913812693992	0.0	0.8438846082730189	-0.7296873924915094	0.0	0.8645575879105979	-0.76271831423175	0.0	0.8565405124439691	-0.7616854523620515	0.0	0.8265466007543283	-0.7359297830079334	0.0	0.8497481487551397	-0.5795394854708082	0.0	0.9050210072242878	-0.6584516740566678	0.0	0.8443359248562258	-0.7305973358120449	0.0	0.8647623691903873	-0.7640644217836223	0.0	0.8636516540247622	-0.7603496851478767	0.0	0.8256355588718687	-0.7368286987335578	0.0	0.883882210344808	-0.452016355492445	0.0	0.9095223689913539	-0.4016089981242615	0.0	0.9152191587716166	-0.42898060895739376	0.0	0.8762650128310753	-0.4605582741183217	0.0	0.9332600378444688	-0.4189133697521595	0.0	0.9750740833108734	-0.37393120979196887	0.0	0.882624723214287	-0.45729728585924945	0.0	0.9332738383254219	-0.4201259231455825	0.0	0.9771887562946372	-0.37894460857391776	0.0
